<svg xmlns="http://www.w3.org/2000/svg" width="2732" height="2732" viewBox="0 0 2732 2732">
<title>Memora — splash</title>
<rect width="2732" height="2732" fill="#f5f2ea"/>
<path d="M0 35.5H2732M35.5 0V2732M0 106.5H2732M106.5 0V2732M0 177.5H2732M177.5 0V2732M0 248.5H2732M248.5 0V2732M0 319.5H2732M319.5 0V2732M0 390.5H2732M390.5 0V2732M0 461.5H2732M461.5 0V2732M0 532.5H2732M532.5 0V2732M0 603.5H2732M603.5 0V2732M0 674.5H2732M674.5 0V2732M0 745.5H2732M745.5 0V2732M0 816.5H2732M816.5 0V2732M0 887.5H2732M887.5 0V2732M0 958.5H2732M958.5 0V2732M0 1029.5H2732M1029.5 0V2732M0 1100.5H2732M1100.5 0V2732M0 1171.5H2732M1171.5 0V2732M0 1242.5H2732M1242.5 0V2732M0 1313.5H2732M1313.5 0V2732M0 1384.5H2732M1384.5 0V2732M0 1455.5H2732M1455.5 0V2732M0 1526.5H2732M1526.5 0V2732M0 1597.5H2732M1597.5 0V2732M0 1668.5H2732M1668.5 0V2732M0 1739.5H2732M1739.5 0V2732M0 1810.5H2732M1810.5 0V2732M0 1881.5H2732M1881.5 0V2732M0 1952.5H2732M1952.5 0V2732M0 2023.5H2732M2023.5 0V2732M0 2094.5H2732M2094.5 0V2732M0 2165.5H2732M2165.5 0V2732M0 2236.5H2732M2236.5 0V2732M0 2307.5H2732M2307.5 0V2732M0 2378.5H2732M2378.5 0V2732M0 2449.5H2732M2449.5 0V2732M0 2520.5H2732M2520.5 0V2732M0 2591.5H2732M2591.5 0V2732M0 2662.5H2732M2662.5 0V2732" stroke="rgb(90 120 190 / 0.16)" stroke-width="3.2" fill="none"/>
<g transform="translate(915.523 1438.2) scale(0.134318 -0.134318)"><path d="M78 0L78 1760L614 1760L762 687L909 1760L1450 1760L1450 0L1128 0L1128 1268L926 0L610 0L396 1268L396 0ZM1999.52 -16Q1839.52 -16 1744.52 44Q1649.52 104 1608.52 217Q1567.52 330 1567.52 489L1567.52 1092Q1567.52 1301 1687.52 1408.5Q1807.52 1516 2017.52 1516Q2449.52 1516 2449.52 1092L2449.52 983Q2449.52 785 2445.52 717L1925.52 717L1925.52 427Q1925.52 387 1930.52 348.5Q1935.52 310 1953.02 285Q1970.52 260 2009.52 260Q2065.52 260 2079.52 308.5Q2093.52 357 2093.52 435L2093.52 579L2449.52 579L2449.52 494Q2449.52 326 2408.02 212.5Q2366.52 99 2268.02 41.5Q2169.52 -16 1999.52 -16ZM1923.52 895L2093.52 895L2093.52 1097Q2093.52 1178 2073.52 1213.5Q2053.52 1249 2013.52 1249Q1970.52 1249 1947.02 1215Q1923.52 1181 1923.52 1097ZM2559.04 0L2559.04 1500L2909.04 1500L2909.04 1326Q2933.04 1418 2991.04 1467Q3049.04 1516 3161.04 1516Q3251.04 1516 3314.54 1474.5Q3378.04 1433 3404.04 1365Q3445.04 1439 3500.54 1477.5Q3556.04 1516 3659.04 1516Q3784.04 1516 3851.54 1462.5Q3919.04 1409 3945.54 1314.5Q3972.04 1220 3972.04 1096L3972.04 0L3615.04 0L3615.04 1102Q3615.04 1247 3541.04 1247Q3502.04 1247 3481.04 1220.5Q3460.04 1194 3452.04 1155Q3444.04 1116 3444.04 1077L3444.04 0L3087.04 0L3087.04 1102Q3087.04 1149 3075.54 1196Q3064.04 1243 3017.04 1243Q2977.04 1243 2955.04 1214Q2933.04 1185 2925.04 1142.5Q2917.04 1100 2917.04 1059L2917.04 0ZM4527.56 -16Q4079.56 -16 4079.56 449L4079.56 1051Q4079.56 1263 4198.56 1389.5Q4317.56 1516 4527.56 1516Q4738.56 1516 4857.56 1389.5Q4976.56 1263 4976.56 1051L4976.56 449Q4976.56 -16 4527.56 -16ZM4527.56 260Q4572.56 260 4592.06 292.5Q4611.56 325 4611.56 375L4611.56 1108Q4611.56 1239 4527.56 1239Q4443.56 1239 4443.56 1108L4443.56 375Q4443.56 325 4463.06 292.5Q4482.56 260 4527.56 260ZM5088.08 0L5088.08 1500L5452.08 1500L5452.08 1333Q5478.08 1420 5544.08 1469Q5610.08 1518 5710.08 1518L5710.08 1219Q5666.08 1219 5605.08 1209.5Q5544.08 1200 5498.08 1183.5Q5452.08 1167 5452.08 1147L5452.08 0ZM6050.6 -16Q5925.6 -16 5860.1 42Q5794.6 100 5770.6 201Q5746.6 302 5746.6 430Q5746.6 567 5773.6 654.5Q5800.6 742 5866.1 798Q5931.6 854 6046.6 893L6268.6 969L6268.6 1123Q6268.6 1244 6189.6 1244Q6117.6 1244 6117.6 1146L6117.6 1056L5769.6 1056Q5768.6 1064 5768.6 1076.5Q5768.6 1089 5768.6 1105Q5768.6 1329 5874.1 1422.5Q5979.6 1516 6208.6 1516Q6328.6 1516 6423.6 1473.5Q6518.6 1431 6574.1 1348Q6629.6 1265 6629.6 1143L6629.6 0L6273.6 0L6273.6 178Q6247.6 84 6187.6 34Q6127.6 -16 6050.6 -16ZM6191.6 262Q6235.6 262 6251.6 299Q6267.6 336 6267.6 379L6267.6 797Q6193.6 767 6152.6 721.5Q6111.6 676 6111.6 588L6111.6 395Q6111.6 262 6191.6 262Z" fill="#1a1a18"/></g>
<rect x="926" y="1530.2" width="880" height="26" fill="#d92f52"/>
</svg>
